<?xml version="1.0" encoding="UTF-8"?>
<svg xmlns="http://www.w3.org/2000/svg" width="2604" height="687" viewBox="0 0 2604 687" font-family="ui-sans-serif, system-ui, -apple-system, 'Segoe UI', Roboto, 'Helvetica Neue', Arial, sans-serif" style="background:#000000">
  <defs>
    <marker id="ah-solid" markerWidth="9" markerHeight="9" refX="8" refY="3" orient="auto"><path d="M0,0 L0,6 L8,3 z" fill="#e2e8f0"/></marker>
    <marker id="ah-thin" markerWidth="9" markerHeight="9" refX="8" refY="3" orient="auto"><path d="M0,0 L0,6 L8,3 z" fill="#9ca3af"/></marker>
    <marker id="ah-stream" markerWidth="9" markerHeight="9" refX="8" refY="3" orient="auto"><path d="M0,0 L0,6 L8,3 z" fill="#d9f99d"/></marker>
    <marker id="ah-axil" markerWidth="9" markerHeight="9" refX="8" refY="3" orient="auto"><path d="M0,0 L0,6 L8,3 z" fill="#93c5fd"/></marker>
    <marker id="ah-tilelink" markerWidth="9" markerHeight="9" refX="8" refY="3" orient="auto"><path d="M0,0 L0,6 L8,3 z" fill="#5eead4"/></marker>
    <marker id="ah-cdc" markerWidth="9" markerHeight="9" refX="8" refY="3" orient="auto"><path d="M0,0 L0,6 L8,3 z" fill="#d8b4fe"/></marker>
    <marker id="ah-open" markerWidth="9" markerHeight="9" refX="8" refY="3" orient="auto"><path d="M0.5,0.5 L0.5,5.5 L8,3 z" fill="#000000" stroke="#e2e8f0" stroke-width="1"/></marker>
    <linearGradient id="grad-xmit" x1="0%" y1="0%" x2="100%" y2="0%"><stop offset="50%" stop-color="#90CAF9"/><stop offset="50%" stop-color="#A5D6A7"/></linearGradient>
    <linearGradient id="grad-recv_front" x1="0%" y1="0%" x2="100%" y2="0%"><stop offset="50%" stop-color="#90CAF9"/><stop offset="50%" stop-color="#FFCC80"/></linearGradient>
  </defs>
  <rect width="2604" height="687" fill="#000000" id="_canvas_bg"/>
  <text x="1166.0" y="24" text-anchor="middle" font-size="21" font-weight="600" fill="#e2e8f0" letter-spacing="0.2">SpaceWire Reloaded AXI Top</text>
  <rect id="group_axi_wrapper" x="360" y="38" width="1612" height="627" fill="none" stroke="#9ca3af" stroke-width="1.2" stroke-dasharray="6,4" rx="10"/>
  <text x="374" y="56" font-size="14" font-weight="700" letter-spacing="1.2" fill="#9ca3af">SPW_AXI_TOP AXI WRAPPER</text>
  <rect id="group_spw_core" x="700" y="203" width="932" height="462" fill="none" stroke="#9ca3af" stroke-width="1.2" stroke-dasharray="6,4" rx="10"/>
  <text x="714" y="221" font-size="14" font-weight="700" letter-spacing="1.2" fill="#9ca3af">SPWSTREAM</text>
  <rect id="axi_host" x="36" y="66" width="220" height="90" fill="#374151" stroke="#9ca3af" stroke-width="1.4" rx="8"/>
  <text x="146" y="116" text-anchor="middle" font-size="18" font-weight="600" fill="#e2e8f0">AXI4-Lite Host</text>
  <rect id="regs" x="376" y="66" width="220" height="90" fill="#90CAF9" stroke="#1565C0" stroke-width="1.4" rx="8"/>
  <text x="486" y="109" text-anchor="middle" font-size="18" font-weight="600" fill="#1f2937">spw_axi_lite_regs</text>
  <text x="486" y="125" text-anchor="middle" font-size="15" font-style="italic" fill="#1f2937" opacity="0.85">CSRs, IRQ, timecodes</text>
  <rect id="irq" x="2076" y="66" width="220" height="90" fill="#374151" stroke="#9ca3af" stroke-width="1.4" rx="8"/>
  <text x="2186" y="116" text-anchor="middle" font-size="18" font-weight="600" fill="#e2e8f0">IRQ</text>
  <rect id="tx_app" x="36" y="396" width="220" height="90" fill="#374151" stroke="#9ca3af" stroke-width="1.4" rx="8"/>
  <text x="146" y="439" text-anchor="middle" font-size="18" font-weight="600" fill="#e2e8f0">TX Source</text>
  <text x="146" y="455" text-anchor="middle" font-size="15" font-style="italic" fill="#e2e8f0" opacity="0.85">AXI-Stream</text>
  <rect id="axis_tx" x="376" y="396" width="220" height="90" fill="#90CAF9" stroke="#1565C0" stroke-width="1.4" rx="8"/>
  <text x="486" y="439" text-anchor="middle" font-size="18" font-weight="600" fill="#1f2937">spw_axis_tx</text>
  <text x="486" y="455" text-anchor="middle" font-size="15" font-style="italic" fill="#1f2937" opacity="0.85">AXI-Stream to N-Char</text>
  <rect id="tx_fifo" x="716" y="396" width="220" height="90" fill="#90CAF9" stroke="#1565C0" stroke-width="1.4" rx="8"/>
  <text x="826" y="439" text-anchor="middle" font-size="18" font-weight="600" fill="#1f2937">spwram</text>
  <text x="826" y="455" text-anchor="middle" font-size="15" font-style="italic" fill="#1f2937" opacity="0.85">TX FIFO, 9-bit N-Char</text>
  <rect id="link" x="1056" y="314" width="220" height="90" fill="#90CAF9" stroke="#1565C0" stroke-width="1.4" rx="8"/>
  <text x="1166" y="356" text-anchor="middle" font-size="18" font-weight="600" fill="#1f2937">spwlink</text>
  <text x="1166" y="372" text-anchor="middle" font-size="15" font-style="italic" fill="#1f2937" opacity="0.85">link state, credits, FCT</text>
  <rect id="xmit" x="1396" y="314" width="220" height="90" fill="url(#grad-xmit)" stroke="#4b5563" stroke-width="1.4" rx="8"/>
  <text x="1506" y="356" text-anchor="middle" font-size="18" font-weight="600" fill="#1f2937">spwxmit / fast</text>
  <text x="1506" y="372" text-anchor="middle" font-size="15" font-style="italic" fill="#1f2937" opacity="0.85">serializer, txclk optional</text>
  <rect id="spacewire" x="2076" y="314" width="220" height="90" fill="#374151" stroke="#9ca3af" stroke-width="1.4" rx="8"/>
  <text x="2186" y="356" text-anchor="middle" font-size="18" font-weight="600" fill="#e2e8f0">SpaceWire Link</text>
  <text x="2186" y="372" text-anchor="middle" font-size="15" font-style="italic" fill="#e2e8f0" opacity="0.85">D/S pins</text>
  <rect id="recv_front" x="1396" y="231" width="220" height="90" fill="url(#grad-recv_front)" stroke="#4b5563" stroke-width="1.4" rx="8"/>
  <text x="1506" y="274" text-anchor="middle" font-size="18" font-weight="600" fill="#1f2937">spwrecvfront</text>
  <text x="1506" y="290" text-anchor="middle" font-size="15" font-style="italic" fill="#1f2937" opacity="0.85">generic / fast RX</text>
  <rect id="recv" x="1056" y="231" width="220" height="90" fill="#90CAF9" stroke="#1565C0" stroke-width="1.4" rx="8"/>
  <text x="1166" y="274" text-anchor="middle" font-size="18" font-weight="600" fill="#1f2937">spwrecv</text>
  <text x="1166" y="290" text-anchor="middle" font-size="15" font-style="italic" fill="#1f2937" opacity="0.85">decode chars, errors</text>
  <rect id="rx_fifo" x="1396" y="561" width="220" height="90" fill="#90CAF9" stroke="#1565C0" stroke-width="1.4" rx="8"/>
  <text x="1506" y="604" text-anchor="middle" font-size="18" font-weight="600" fill="#1f2937">spwram</text>
  <text x="1506" y="620" text-anchor="middle" font-size="15" font-style="italic" fill="#1f2937" opacity="0.85">RX FIFO, 9-bit N-Char</text>
  <rect id="axis_rx" x="1736" y="561" width="220" height="90" fill="#90CAF9" stroke="#1565C0" stroke-width="1.4" rx="8"/>
  <text x="1846" y="604" text-anchor="middle" font-size="18" font-weight="600" fill="#1f2937">spw_axis_rx</text>
  <text x="1846" y="620" text-anchor="middle" font-size="15" font-style="italic" fill="#1f2937" opacity="0.85">N-Char to AXI-Stream</text>
  <rect id="rx_app" x="2076" y="561" width="220" height="90" fill="#374151" stroke="#9ca3af" stroke-width="1.4" rx="8"/>
  <text x="2186" y="604" text-anchor="middle" font-size="18" font-weight="600" fill="#e2e8f0">RX Sink</text>
  <text x="2186" y="620" text-anchor="middle" font-size="15" font-style="italic" fill="#e2e8f0" opacity="0.85">AXI-Stream</text>
  <path id="edge_axi_host_to_regs" d="M 256.0,111.0 L 316.0,111.0 L 376.0,111.0" stroke="#93c5fd" stroke-width="2.5" fill="none" marker-end="url(#ah-axil)"/>
  <rect x="259.0" y="92.2" width="80.2" height="19.0" fill="#1f2937" stroke="#4b5563" stroke-width="0.6" rx="3"/>
  <text x="299.1" y="107.0" text-anchor="middle" font-size="15" fill="#e2e8f0">AXI-L 32b</text>
  <path id="edge_regs_to_link" d="M 596.0,126.0 L 826.0,126.0 L 826.0,343.5 L 1056.0,343.5" stroke="#9ca3af" stroke-width="1.4" fill="none" marker-end="url(#ah-thin)"/>
  <rect x="662.6" y="107.2" width="96.8" height="19.0" fill="#1f2937" stroke="#4b5563" stroke-width="0.6" rx="3"/>
  <text x="711.0" y="122.0" text-anchor="middle" font-size="15" fill="#e2e8f0">ctrl/status</text>
  <path id="edge_regs_to_irq" d="M 596.0,96.0 L 1336.0,96.0 L 1336.0,111.0 L 2076.0,111.0" stroke="#9ca3af" stroke-width="1.4" fill="none" marker-end="url(#ah-thin)"/>
  <rect x="958.5" y="77.2" width="15.0" height="19.0" fill="#1f2937" stroke="#4b5563" stroke-width="0.6" rx="3"/>
  <text x="966.0" y="92.0" text-anchor="middle" font-size="15" fill="#e2e8f0">1</text>
  <path id="edge_tx_app_to_axis_tx" d="M 256.0,441.0 L 316.0,441.0 L 376.0,441.0" stroke="#d9f99d" stroke-width="2.2" fill="none" marker-end="url(#ah-stream)"/>
  <rect x="259.0" y="422.2" width="72.0" height="19.0" fill="#1f2937" stroke="#4b5563" stroke-width="0.6" rx="3"/>
  <text x="295.0" y="437.0" text-anchor="middle" font-size="15" fill="#e2e8f0">AXI-S 8b</text>
  <path id="edge_axis_tx_to_tx_fifo" d="M 596.0,441.0 L 656.0,441.0 L 716.0,441.0" stroke="#9ca3af" stroke-width="1.4" fill="none" marker-end="url(#ah-thin)"/>
  <rect x="599.0" y="422.2" width="72.0" height="19.0" fill="#1f2937" stroke="#4b5563" stroke-width="0.6" rx="3"/>
  <text x="635.0" y="437.0" text-anchor="middle" font-size="15" fill="#e2e8f0">NChar TX</text>
  <path id="edge_tx_fifo_to_link" d="M 936.0,441.0 L 996.0,441.0 L 996.0,373.5 L 1056.0,373.5" stroke="#9ca3af" stroke-width="1.4" fill="none" marker-end="url(#ah-thin)"/>
  <rect x="964.1" y="395.5" width="63.8" height="19.0" fill="#1f2937" stroke="#4b5563" stroke-width="0.6" rx="3"/>
  <text x="996.0" y="410.2" text-anchor="middle" font-size="15" fill="#e2e8f0">TX FIFO</text>
  <path id="edge_link_to_xmit" d="M 1276.0,373.5 L 1356.0,373.5 L 1356.0,358.5 L 1396.0,358.5" stroke="#9ca3af" stroke-width="1.4" fill="none" marker-end="url(#ah-thin)"/>
  <rect x="1320.4" y="354.8" width="47.2" height="19.0" fill="#1f2937" stroke="#4b5563" stroke-width="0.6" rx="3"/>
  <text x="1344.0" y="369.5" text-anchor="middle" font-size="15" fill="#e2e8f0">xmiti</text>
  <path id="edge_xmit_to_spacewire" d="M 1616.0,358.5 L 1866.0,358.5 L 1866.0,373.5 L 2076.0,373.5" stroke="#9ca3af" stroke-width="1.4" fill="none" marker-end="url(#ah-thin)"/>
  <rect x="1709.1" y="339.8" width="63.8" height="19.0" fill="#1f2937" stroke="#4b5563" stroke-width="0.6" rx="3"/>
  <text x="1741.0" y="354.5" text-anchor="middle" font-size="15" fill="#e2e8f0">D/S out</text>
  <path id="edge_spacewire_to_recv_front" d="M 2076.0,343.5 L 1826.0,343.5 L 1826.0,276.0 L 1616.0,276.0" stroke="#9ca3af" stroke-width="1.4" fill="none" marker-end="url(#ah-thin)"/>
  <rect x="1923.2" y="324.8" width="55.5" height="19.0" fill="#1f2937" stroke="#4b5563" stroke-width="0.6" rx="3"/>
  <text x="1951.0" y="339.5" text-anchor="middle" font-size="15" fill="#e2e8f0">D/S in</text>
  <path id="edge_recv_front_to_recv" d="M 1396.0,276.0 L 1316.0,276.0 L 1276.0,276.0" stroke="#9ca3af" stroke-width="1.4" fill="none" marker-end="url(#ah-thin)"/>
  <rect x="1324.1" y="257.2" width="63.8" height="19.0" fill="#1f2937" stroke="#4b5563" stroke-width="0.6" rx="3"/>
  <text x="1356.0" y="272.0" text-anchor="middle" font-size="15" fill="#e2e8f0">rx bits</text>
  <path id="edge_recv_to_link" d="M 1166.0,321.0 L 1166.0,358.5 L 996.0,358.5 L 996.0,276.0 L 1166.0,276.0 L 1166.0,313.5" stroke="#9ca3af" stroke-width="1.4" fill="none" marker-end="url(#ah-thin)"/>
  <rect x="1057.4" y="339.8" width="47.2" height="19.0" fill="#1f2937" stroke="#4b5563" stroke-width="0.6" rx="3"/>
  <text x="1081.0" y="354.5" text-anchor="middle" font-size="15" fill="#e2e8f0">recvo</text>
  <path id="edge_link_to_rx_fifo" d="M 1276.0,343.5 L 1316.0,343.5 L 1316.0,606.0 L 1396.0,606.0" stroke="#9ca3af" stroke-width="1.4" fill="none" marker-end="url(#ah-thin)"/>
  <rect x="1284.1" y="463.0" width="63.8" height="19.0" fill="#1f2937" stroke="#4b5563" stroke-width="0.6" rx="3"/>
  <text x="1316.0" y="477.8" text-anchor="middle" font-size="15" fill="#e2e8f0">RX FIFO</text>
  <path id="edge_rx_fifo_to_axis_rx" d="M 1616.0,606.0 L 1676.0,606.0 L 1736.0,606.0" stroke="#9ca3af" stroke-width="1.4" fill="none" marker-end="url(#ah-thin)"/>
  <rect x="1619.0" y="587.2" width="72.0" height="19.0" fill="#1f2937" stroke="#4b5563" stroke-width="0.6" rx="3"/>
  <text x="1655.0" y="602.0" text-anchor="middle" font-size="15" fill="#e2e8f0">NChar RX</text>
  <path id="edge_axis_rx_to_rx_app" d="M 1956.0,606.0 L 2016.0,606.0 L 2076.0,606.0" stroke="#d9f99d" stroke-width="2.2" fill="none" marker-end="url(#ah-stream)"/>
  <rect x="1959.0" y="587.2" width="72.0" height="19.0" fill="#1f2937" stroke="#4b5563" stroke-width="0.6" rx="3"/>
  <text x="1995.0" y="602.0" text-anchor="middle" font-size="15" fill="#e2e8f0">AXI-S 8b</text>
  <rect id="legend_card" x="2348" y="46" width="240" height="116" fill="#0f172a" stroke="#475569" stroke-width="1" rx="6"/>
  <text x="2468" y="74" text-anchor="middle" font-size="13" font-weight="700" fill="#e2e8f0" letter-spacing="0.4">Clock domains</text>
  <rect x="2362" y="86" width="22" height="14" fill="#90CAF9" stroke="#1565C0" stroke-width="1.2" rx="2"/>
  <text x="2394" y="98" font-size="13" fill="#e2e8f0">sys</text>
  <rect x="2362" y="108" width="22" height="14" fill="#FFCC80" stroke="#EF6C00" stroke-width="1.2" rx="2"/>
  <text x="2394" y="120" font-size="13" fill="#e2e8f0">rx</text>
  <rect x="2362" y="130" width="22" height="14" fill="#A5D6A7" stroke="#2E7D32" stroke-width="1.2" rx="2"/>
  <text x="2394" y="142" font-size="13" fill="#e2e8f0">tx</text>
</svg>